<svg width="59" height="28" viewBox="0 0 59 28" fill="none" xmlns="http://www.w3.org/2000/svg">
<path d="M28.2695 5.07031H17.0781V28H12V5.07031H0.789062V-0.0078125H28.2695V5.07031ZM58.9336 19.7578C58.9336 20.7604 58.8034 21.6654 58.543 22.4727C58.2956 23.2669 57.9635 23.9701 57.5469 24.582C57.1302 25.194 56.6419 25.7148 56.082 26.1445C55.5221 26.5742 54.9427 26.9258 54.3438 27.1992C53.7448 27.4727 53.1328 27.6745 52.5078 27.8047C51.8958 27.9349 51.3164 28 50.7695 28H31.1797V22.9219H50.7695C51.7461 22.9219 52.5013 22.6354 53.0352 22.0625C53.582 21.4896 53.8555 20.7214 53.8555 19.7578C53.8555 19.2891 53.7839 18.8594 53.6406 18.4688C53.4974 18.0781 53.2891 17.7396 53.0156 17.4531C52.7552 17.1667 52.4297 16.9453 52.0391 16.7891C51.6615 16.6328 51.2383 16.5547 50.7695 16.5547H39.0898C38.2695 16.5547 37.3841 16.4115 36.4336 16.125C35.4831 15.8255 34.5977 15.3503 33.7773 14.6992C32.9701 14.0482 32.293 13.1953 31.7461 12.1406C31.2122 11.0859 30.9453 9.79688 30.9453 8.27344C30.9453 6.75 31.2122 5.46745 31.7461 4.42578C32.293 3.37109 32.9701 2.51823 33.7773 1.86719C34.5977 1.20312 35.4831 0.727865 36.4336 0.441406C37.3841 0.141927 38.2695 -0.0078125 39.0898 -0.0078125H56.375V5.07031H39.0898C38.1263 5.07031 37.3711 5.36328 36.8242 5.94922C36.2904 6.53516 36.0234 7.3099 36.0234 8.27344C36.0234 9.25 36.2904 10.0247 36.8242 10.5977C37.3711 11.1576 38.1263 11.4375 39.0898 11.4375H50.7695H50.8086C51.3555 11.4505 51.9349 11.5286 52.5469 11.6719C53.1589 11.8021 53.7643 12.0104 54.3633 12.2969C54.9753 12.5833 55.5547 12.9479 56.1016 13.3906C56.6484 13.8203 57.1302 14.3411 57.5469 14.9531C57.9766 15.5651 58.3151 16.2682 58.5625 17.0625C58.8099 17.8568 58.9336 18.7552 58.9336 19.7578Z" fill="white"/>
</svg>
