<svg width="312" height="31" viewBox="0 0 312 31" fill="none" xmlns="http://www.w3.org/2000/svg">
<path d="M28.2695 8.07031H17.0781V31H12V8.07031H0.789062V2.99219H28.2695V8.07031ZM47.5859 14.9648H36.1602C35.4701 14.9648 34.9492 15.1406 34.5977 15.4922C34.2461 15.8307 34.0703 16.332 34.0703 16.9961V31H28.9922V16.9961C28.9922 16.1237 29.1029 15.3424 29.3242 14.6523C29.5456 13.9622 29.8385 13.3568 30.2031 12.8359C30.5807 12.3021 31.0104 11.8529 31.4922 11.4883C31.974 11.1107 32.4753 10.8047 32.9961 10.5703C33.5299 10.3359 34.0638 10.1667 34.5977 10.0625C35.1445 9.94531 35.6523 9.88672 36.1211 9.88672H47.5859V14.9648ZM71.1016 24.0078C71.1016 24.7109 70.9779 25.4727 70.7305 26.293C70.4831 27.1003 70.0794 27.8555 69.5195 28.5586C68.9727 29.2487 68.25 29.8281 67.3516 30.2969C66.4661 30.7656 65.3854 31 64.1094 31H54.9492C54.2461 31 53.4844 30.8763 52.6641 30.6289C51.8568 30.3815 51.1016 29.9844 50.3984 29.4375C49.7083 28.8776 49.1289 28.1549 48.6602 27.2695C48.1914 26.3711 47.957 25.2839 47.957 24.0078C47.957 23.3047 48.0807 22.543 48.3281 21.7227C48.5755 20.9023 48.9727 20.1471 49.5195 19.457C50.0794 18.7539 50.8021 18.168 51.6875 17.6992C52.5859 17.2305 53.6732 16.9961 54.9492 16.9961H64.1094V21.8398H54.9492C54.2591 21.8398 53.7253 22.0547 53.3477 22.4844C52.9701 22.901 52.7812 23.4219 52.7812 24.0469C52.7812 24.7109 52.9961 25.2318 53.4258 25.6094C53.8685 25.974 54.3893 26.1562 54.9883 26.1562H64.1094C64.7995 26.1562 65.3333 25.9479 65.7109 25.5312C66.0885 25.1146 66.2773 24.5938 66.2773 23.9688V16.8789C66.2773 16.2148 66.069 15.6875 65.6523 15.2969C65.2487 14.9062 64.7344 14.7109 64.1094 14.7109H52.957V9.88672H64.1094C64.8125 9.88672 65.5677 10.0104 66.375 10.2578C67.1953 10.5052 67.9505 10.9089 68.6406 11.4688C69.3438 12.0156 69.9297 12.7383 70.3984 13.6367C70.8672 14.5221 71.1016 15.6029 71.1016 16.8789V24.0078ZM98.6016 23.8711C98.6016 24.7435 98.4909 25.5312 98.2695 26.2344C98.0482 26.9245 97.7552 27.5365 97.3906 28.0703C97.026 28.5911 96.6029 29.0404 96.1211 29.418C95.6393 29.7826 95.1315 30.082 94.5977 30.3164C94.0768 30.5508 93.543 30.7266 92.9961 30.8438C92.4622 30.9479 91.9544 31 91.4727 31H82.3125C81.4401 31 80.6589 30.8893 79.9688 30.668C79.2786 30.4466 78.6667 30.1536 78.1328 29.7891C77.612 29.4115 77.1628 28.9818 76.7852 28.5C76.4206 28.0182 76.1211 27.5169 75.8867 26.9961C75.6523 26.4622 75.4766 25.9284 75.3594 25.3945C75.2552 24.8477 75.2031 24.3398 75.2031 23.8711V16.9961C75.2031 15.694 75.4375 14.5938 75.9062 13.6953C76.388 12.7839 76.9805 12.0482 77.6836 11.4883C78.3997 10.9154 79.1745 10.5052 80.0078 10.2578C80.8411 10.0104 81.6094 9.88672 82.3125 9.88672H91.4727V14.9648H82.3516C81.6745 14.9648 81.1602 15.1406 80.8086 15.4922C80.457 15.8307 80.2812 16.332 80.2812 16.9961V23.832C80.2812 24.5221 80.4505 25.043 80.7891 25.3945C81.1406 25.7461 81.6484 25.9219 82.3125 25.9219H91.4727C92.1628 25.9219 92.6771 25.7461 93.0156 25.3945C93.3542 25.043 93.5234 24.5352 93.5234 23.8711V0.960938H98.6016V23.8711ZM126.16 16.8789C126.16 17.582 126.036 18.3438 125.789 19.1641C125.542 19.9714 125.138 20.7266 124.578 21.4297C124.031 22.1198 123.309 22.6992 122.41 23.168C121.525 23.6367 120.444 23.8711 119.168 23.8711H110.008V19.0469H119.168C119.858 19.0469 120.392 18.8385 120.77 18.4219C121.147 17.9922 121.336 17.4648 121.336 16.8398C121.336 16.1758 121.121 15.6549 120.691 15.2773C120.275 14.8997 119.767 14.7109 119.168 14.7109H110.008C109.318 14.7109 108.784 14.9258 108.406 15.3555C108.029 15.7721 107.84 16.293 107.84 16.918V24.0078C107.84 24.6849 108.048 25.2122 108.465 25.5898C108.895 25.9674 109.422 26.1562 110.047 26.1562H119.168V31H110.008C109.305 31 108.543 30.8763 107.723 30.6289C106.915 30.3815 106.16 29.9844 105.457 29.4375C104.767 28.8776 104.188 28.1549 103.719 27.2695C103.25 26.3711 103.016 25.2839 103.016 24.0078V16.8789C103.016 16.1758 103.139 15.4206 103.387 14.6133C103.634 13.793 104.031 13.0378 104.578 12.3477C105.138 11.6445 105.861 11.0586 106.746 10.5898C107.645 10.1211 108.732 9.88672 110.008 9.88672H119.168C119.871 9.88672 120.626 10.0104 121.434 10.2578C122.254 10.5052 123.009 10.9089 123.699 11.4688C124.402 12.0156 124.988 12.7383 125.457 13.6367C125.926 14.5221 126.16 15.6029 126.16 16.8789ZM157.059 22.7578C157.059 23.7604 156.928 24.6654 156.668 25.4727C156.421 26.2669 156.089 26.9701 155.672 27.582C155.255 28.194 154.767 28.7148 154.207 29.1445C153.647 29.5742 153.068 29.9258 152.469 30.1992C151.87 30.4727 151.258 30.6745 150.633 30.8047C150.021 30.9349 149.441 31 148.895 31H129.305V25.9219H148.895C149.871 25.9219 150.626 25.6354 151.16 25.0625C151.707 24.4896 151.98 23.7214 151.98 22.7578C151.98 22.2891 151.909 21.8594 151.766 21.4688C151.622 21.0781 151.414 20.7396 151.141 20.4531C150.88 20.1667 150.555 19.9453 150.164 19.7891C149.786 19.6328 149.363 19.5547 148.895 19.5547H137.215C136.395 19.5547 135.509 19.4115 134.559 19.125C133.608 18.8255 132.723 18.3503 131.902 17.6992C131.095 17.0482 130.418 16.1953 129.871 15.1406C129.337 14.0859 129.07 12.7969 129.07 11.2734C129.07 9.75 129.337 8.46745 129.871 7.42578C130.418 6.37109 131.095 5.51823 131.902 4.86719C132.723 4.20312 133.608 3.72786 134.559 3.44141C135.509 3.14193 136.395 2.99219 137.215 2.99219H154.5V8.07031H137.215C136.251 8.07031 135.496 8.36328 134.949 8.94922C134.415 9.53516 134.148 10.3099 134.148 11.2734C134.148 12.25 134.415 13.0247 134.949 13.5977C135.496 14.1576 136.251 14.4375 137.215 14.4375H148.895H148.934C149.48 14.4505 150.06 14.5286 150.672 14.6719C151.284 14.8021 151.889 15.0104 152.488 15.2969C153.1 15.5833 153.68 15.9479 154.227 16.3906C154.773 16.8203 155.255 17.3411 155.672 17.9531C156.102 18.5651 156.44 19.2682 156.688 20.0625C156.935 20.8568 157.059 21.7552 157.059 22.7578ZM181.16 31H167.391C166.688 31 165.919 30.8763 165.086 30.6289C164.253 30.3815 163.478 29.9779 162.762 29.418C162.059 28.8451 161.466 28.1094 160.984 27.2109C160.516 26.2995 160.281 25.1862 160.281 23.8711V16.9961C160.281 16.5143 160.333 16.0065 160.438 15.4727C160.555 14.9388 160.73 14.4115 160.965 13.8906C161.199 13.3568 161.499 12.849 161.863 12.3672C162.241 11.8854 162.69 11.4622 163.211 11.0977C163.745 10.7331 164.357 10.4401 165.047 10.2188C165.737 9.9974 166.518 9.88672 167.391 9.88672H181.16V14.9648H167.391C166.727 14.9648 166.219 15.1341 165.867 15.4727C165.529 15.8112 165.359 16.332 165.359 17.0352V23.8711C165.359 24.5352 165.535 25.043 165.887 25.3945C166.238 25.7461 166.753 25.9219 167.43 25.9219H181.16V31ZM207 24.0078C207 24.7109 206.876 25.4727 206.629 26.293C206.382 27.1003 205.978 27.8555 205.418 28.5586C204.871 29.2487 204.148 29.8281 203.25 30.2969C202.365 30.7656 201.284 31 200.008 31H190.848C190.145 31 189.383 30.8763 188.562 30.6289C187.755 30.3815 187 29.9844 186.297 29.4375C185.607 28.8776 185.027 28.1549 184.559 27.2695C184.09 26.3711 183.855 25.2839 183.855 24.0078C183.855 23.3047 183.979 22.543 184.227 21.7227C184.474 20.9023 184.871 20.1471 185.418 19.457C185.978 18.7539 186.701 18.168 187.586 17.6992C188.484 17.2305 189.572 16.9961 190.848 16.9961H200.008V21.8398H190.848C190.158 21.8398 189.624 22.0547 189.246 22.4844C188.868 22.901 188.68 23.4219 188.68 24.0469C188.68 24.7109 188.895 25.2318 189.324 25.6094C189.767 25.974 190.288 26.1562 190.887 26.1562H200.008C200.698 26.1562 201.232 25.9479 201.609 25.5312C201.987 25.1146 202.176 24.5938 202.176 23.9688V16.8789C202.176 16.2148 201.967 15.6875 201.551 15.2969C201.147 14.9062 200.633 14.7109 200.008 14.7109H188.855V9.88672H200.008C200.711 9.88672 201.466 10.0104 202.273 10.2578C203.094 10.5052 203.849 10.9089 204.539 11.4688C205.242 12.0156 205.828 12.7383 206.297 13.6367C206.766 14.5221 207 15.6029 207 16.8789V24.0078ZM234.734 31H229.656V19.2812C229.656 18.6172 229.539 18.0247 229.305 17.5039C229.083 16.9701 228.777 16.5143 228.387 16.1367C227.996 15.7591 227.534 15.4727 227 15.2773C226.479 15.069 225.913 14.9648 225.301 14.9648H216.414V31H211.336V12.4062C211.336 12.0547 211.401 11.7292 211.531 11.4297C211.661 11.1172 211.844 10.8503 212.078 10.6289C212.312 10.3945 212.586 10.2122 212.898 10.082C213.211 9.95182 213.543 9.88672 213.895 9.88672H225.34C225.978 9.88672 226.648 9.95833 227.352 10.1016C228.068 10.2448 228.771 10.4792 229.461 10.8047C230.164 11.1172 230.828 11.5208 231.453 12.0156C232.091 12.4974 232.651 13.0898 233.133 13.793C233.628 14.4831 234.018 15.2839 234.305 16.1953C234.591 17.1068 234.734 18.1354 234.734 19.2812V31ZM262.586 31H257.508V19.2812C257.508 18.6172 257.391 18.0247 257.156 17.5039C256.935 16.9701 256.629 16.5143 256.238 16.1367C255.848 15.7591 255.385 15.4727 254.852 15.2773C254.331 15.069 253.764 14.9648 253.152 14.9648H244.266V31H239.188V12.4062C239.188 12.0547 239.253 11.7292 239.383 11.4297C239.513 11.1172 239.695 10.8503 239.93 10.6289C240.164 10.3945 240.438 10.2122 240.75 10.082C241.062 9.95182 241.395 9.88672 241.746 9.88672H253.191C253.829 9.88672 254.5 9.95833 255.203 10.1016C255.919 10.2448 256.622 10.4792 257.312 10.8047C258.016 11.1172 258.68 11.5208 259.305 12.0156C259.943 12.4974 260.503 13.0898 260.984 13.793C261.479 14.4831 261.87 15.2839 262.156 16.1953C262.443 17.1068 262.586 18.1354 262.586 19.2812V31ZM289.754 16.8789C289.754 17.582 289.63 18.3438 289.383 19.1641C289.135 19.9714 288.732 20.7266 288.172 21.4297C287.625 22.1198 286.902 22.6992 286.004 23.168C285.118 23.6367 284.038 23.8711 282.762 23.8711H273.602V19.0469H282.762C283.452 19.0469 283.986 18.8385 284.363 18.4219C284.741 17.9922 284.93 17.4648 284.93 16.8398C284.93 16.1758 284.715 15.6549 284.285 15.2773C283.868 14.8997 283.361 14.7109 282.762 14.7109H273.602C272.911 14.7109 272.378 14.9258 272 15.3555C271.622 15.7721 271.434 16.293 271.434 16.918V24.0078C271.434 24.6849 271.642 25.2122 272.059 25.5898C272.488 25.9674 273.016 26.1562 273.641 26.1562H282.762V31H273.602C272.898 31 272.137 30.8763 271.316 30.6289C270.509 30.3815 269.754 29.9844 269.051 29.4375C268.361 28.8776 267.781 28.1549 267.312 27.2695C266.844 26.3711 266.609 25.2839 266.609 24.0078V16.8789C266.609 16.1758 266.733 15.4206 266.98 14.6133C267.228 13.793 267.625 13.0378 268.172 12.3477C268.732 11.6445 269.454 11.0586 270.34 10.5898C271.238 10.1211 272.326 9.88672 273.602 9.88672H282.762C283.465 9.88672 284.22 10.0104 285.027 10.2578C285.848 10.5052 286.603 10.9089 287.293 11.4688C287.996 12.0156 288.582 12.7383 289.051 13.6367C289.52 14.5221 289.754 15.6029 289.754 16.8789ZM311.648 14.9648H300.223C299.533 14.9648 299.012 15.1406 298.66 15.4922C298.309 15.8307 298.133 16.332 298.133 16.9961V31H293.055V16.9961C293.055 16.1237 293.165 15.3424 293.387 14.6523C293.608 13.9622 293.901 13.3568 294.266 12.8359C294.643 12.3021 295.073 11.8529 295.555 11.4883C296.036 11.1107 296.538 10.8047 297.059 10.5703C297.592 10.3359 298.126 10.1667 298.66 10.0625C299.207 9.94531 299.715 9.88672 300.184 9.88672H311.648V14.9648Z" fill="white"/>
</svg>
