<svg width="39" height="39" viewBox="0 0 39 39" fill="none" xmlns="http://www.w3.org/2000/svg">
<g clip-path="url(#clip0_0_112)">
<path d="M19.5 39C30.2696 39 39 30.2696 39 19.5C39 8.73045 30.2696 0 19.5 0C8.73045 0 0 8.73045 0 19.5C0 30.2696 8.73045 39 19.5 39Z" fill="#59AAE7"/>
<path d="M19.5001 0C18.638 0 17.7892 0.0566719 16.9566 0.165064C26.5243 1.41146 33.9131 9.59255 33.9131 19.5C33.9131 29.4074 26.5243 37.5885 16.9565 38.8349C17.7892 38.9433 18.638 39 19.5001 39C30.2696 39 39.0001 30.2695 39.0001 19.5C39.0001 8.73052 30.2696 0 19.5001 0Z" fill="#3D9AE3"/>
<path d="M12.5447 23.7003L6.25577 20.5558C6.08339 20.4696 6.08171 20.2243 6.25287 20.1357L30.145 7.77763C30.3205 7.68684 30.5231 7.83941 30.4844 8.03319L26.3709 28.6009C26.3415 28.7477 26.1845 28.8302 26.0469 28.7713L20.4564 26.3755C20.3895 26.3467 20.3129 26.3506 20.2491 26.386L13.0251 30.3994C12.868 30.4866 12.6749 30.3731 12.6749 30.1933V23.9111C12.675 23.8218 12.6246 23.7402 12.5447 23.7003Z" fill="#FCFCFC"/>
<path d="M15.2581 25.8198L15.219 19.5411C15.2188 19.5009 15.2396 19.4635 15.2738 19.4426L25.4732 13.2119C25.5888 13.1413 25.7098 13.2944 25.6142 13.3905L17.8523 21.2076C17.8438 21.2162 17.8366 21.2261 17.8312 21.237L16.5035 23.8922L15.4745 25.8718C15.4193 25.9781 15.2588 25.9394 15.2581 25.8198Z" fill="#D8D7DA"/>
</g>
<defs>
<clipPath id="clip0_0_112">
<rect width="39" height="39" fill="white"/>
</clipPath>
</defs>
</svg>
